{
	"asset":{
		"generator":"Khronos glTF Blender I/O v4.2.60",
		"version":"2.0"
	},
	"scene":0,
	"scenes":[
		{
			"name":"Scene",
			"nodes":[
				3
			]
		}
	],
	"nodes":[
		{
			"mesh":0,
			"name":"Garde",
			"translation":[
				0,
				0,
				11.762638092041016
			]
		},
		{
			"mesh":1,
			"name":"Lame"
		},
		{
			"mesh":2,
			"name":"Pommeau",
			"translation":[
				0,
				0,
				27.962482452392578
			]
		},
		{
			"children":[
				0,
				1,
				2
			],
			"mesh":3,
			"name":"Manche"
		}
	],
	"materials":[
		{
			"doubleSided":true,
			"name":"Sting"
		}
	],
	"meshes":[
		{
			"name":"Plane.002",
			"primitives":[
				{
					"attributes":{
						"POSITION":0,
						"NORMAL":1,
						"TEXCOORD_0":2
					},
					"indices":3,
					"material":0
				}
			]
		},
		{
			"name":"Plane",
			"primitives":[
				{
					"attributes":{
						"POSITION":4,
						"NORMAL":5,
						"TEXCOORD_0":6
					},
					"indices":7,
					"material":0
				}
			]
		},
		{
			"name":"Plane.001",
			"primitives":[
				{
					"attributes":{
						"POSITION":8,
						"NORMAL":9,
						"TEXCOORD_0":10
					},
					"indices":11,
					"material":0
				}
			]
		},
		{
			"name":"Circle",
			"primitives":[
				{
					"attributes":{
						"POSITION":12,
						"NORMAL":13,
						"TEXCOORD_0":14
					},
					"indices":15,
					"material":0
				}
			]
		}
	],
	"accessors":[
		{
			"bufferView":0,
			"componentType":5126,
			"count":243,
			"max":[
				6.353314399719238,
				0.8580726981163025,
				1.0502774715423584
			],
			"min":[
				-6.353314399719238,
				0,
				-1.2034515142440796
			],
			"type":"VEC3"
		},
		{
			"bufferView":1,
			"componentType":5126,
			"count":243,
			"type":"VEC3"
		},
		{
			"bufferView":2,
			"componentType":5126,
			"count":243,
			"type":"VEC2"
		},
		{
			"bufferView":3,
			"componentType":5123,
			"count":1248,
			"type":"SCALAR"
		},
		{
			"bufferView":4,
			"componentType":5126,
			"count":114,
			"max":[
				3.676788806915283,
				0.5919314026832581,
				12.241557121276855
			],
			"min":[
				-3.676788806915283,
				0,
				-30.34036636352539
			],
			"type":"VEC3"
		},
		{
			"bufferView":5,
			"componentType":5126,
			"count":114,
			"type":"VEC3"
		},
		{
			"bufferView":6,
			"componentType":5126,
			"count":114,
			"type":"VEC2"
		},
		{
			"bufferView":7,
			"componentType":5123,
			"count":558,
			"type":"SCALAR"
		},
		{
			"bufferView":8,
			"componentType":5126,
			"count":177,
			"max":[
				2.0772628784179688,
				0.7604101300239563,
				2.3057327270507812
			],
			"min":[
				-2.0772628784179688,
				0,
				-2.284090042114258
			],
			"type":"VEC3"
		},
		{
			"bufferView":9,
			"componentType":5126,
			"count":177,
			"type":"VEC3"
		},
		{
			"bufferView":10,
			"componentType":5126,
			"count":177,
			"type":"VEC2"
		},
		{
			"bufferView":11,
			"componentType":5123,
			"count":936,
			"type":"SCALAR"
		},
		{
			"bufferView":12,
			"componentType":5126,
			"count":189,
			"max":[
				1.6999998092651367,
				0.7676457762718201,
				28.805076599121094
			],
			"min":[
				-1.6999998092651367,
				-0.7676457166671753,
				11.886924743652344
			],
			"type":"VEC3"
		},
		{
			"bufferView":13,
			"componentType":5126,
			"count":189,
			"type":"VEC3"
		},
		{
			"bufferView":14,
			"componentType":5126,
			"count":189,
			"type":"VEC2"
		},
		{
			"bufferView":15,
			"componentType":5123,
			"count":960,
			"type":"SCALAR"
		}
	],
	"bufferViews":[
		{
			"buffer":0,
			"byteLength":2916,
			"byteOffset":0,
			"target":34962
		},
		{
			"buffer":0,
			"byteLength":2916,
			"byteOffset":2916,
			"target":34962
		},
		{
			"buffer":0,
			"byteLength":1944,
			"byteOffset":5832,
			"target":34962
		},
		{
			"buffer":0,
			"byteLength":2496,
			"byteOffset":7776,
			"target":34963
		},
		{
			"buffer":0,
			"byteLength":1368,
			"byteOffset":10272,
			"target":34962
		},
		{
			"buffer":0,
			"byteLength":1368,
			"byteOffset":11640,
			"target":34962
		},
		{
			"buffer":0,
			"byteLength":912,
			"byteOffset":13008,
			"target":34962
		},
		{
			"buffer":0,
			"byteLength":1116,
			"byteOffset":13920,
			"target":34963
		},
		{
			"buffer":0,
			"byteLength":2124,
			"byteOffset":15036,
			"target":34962
		},
		{
			"buffer":0,
			"byteLength":2124,
			"byteOffset":17160,
			"target":34962
		},
		{
			"buffer":0,
			"byteLength":1416,
			"byteOffset":19284,
			"target":34962
		},
		{
			"buffer":0,
			"byteLength":1872,
			"byteOffset":20700,
			"target":34963
		},
		{
			"buffer":0,
			"byteLength":2268,
			"byteOffset":22572,
			"target":34962
		},
		{
			"buffer":0,
			"byteLength":2268,
			"byteOffset":24840,
			"target":34962
		},
		{
			"buffer":0,
			"byteLength":1512,
			"byteOffset":27108,
			"target":34962
		},
		{
			"buffer":0,
			"byteLength":1920,
			"byteOffset":28620,
			"target":34963
		}
	],
	"buffers":[
		{
			"byteLength":30540,
			"uri":"Sting-Sword.bin"
		}
	]
}
